<svg width="1427" height="291" viewBox="0 0 1427 291" fill="none" xmlns="http://www.w3.org/2000/svg">
<circle cx="128.037" cy="133.193" r="127.114" fill="white"/>
<rect x="185.669" y="113.384" width="51.0317" height="162.56" rx="25.5159" transform="rotate(60 185.669 113.384)" fill="black"/>
<rect x="185.669" y="32.1035" width="51.0317" height="162.56" rx="25.5159" transform="rotate(60 185.669 32.1035)" fill="black"/>
<path d="M507.33 144.992C507.33 164.026 503.722 180.219 496.506 193.571C489.347 206.924 479.574 217.123 467.188 224.168C454.858 231.157 440.994 234.651 425.597 234.651C410.085 234.651 396.165 231.128 383.835 224.083C371.506 217.037 361.761 206.839 354.602 193.486C347.443 180.134 343.864 163.969 343.864 144.992C343.864 125.958 347.443 109.765 354.602 96.4124C361.761 83.0601 371.506 72.8896 383.835 65.901C396.165 58.8556 410.085 55.3328 425.597 55.3328C440.994 55.3328 454.858 58.8556 467.188 65.901C479.574 72.8896 489.347 83.0601 496.506 96.4124C503.722 109.765 507.33 125.958 507.33 144.992ZM469.915 144.992C469.915 132.662 468.068 122.265 464.375 113.799C460.739 105.333 455.597 98.9124 448.949 94.5374C442.301 90.1624 434.517 87.9749 425.597 87.9749C416.676 87.9749 408.892 90.1624 402.244 94.5374C395.597 98.9124 390.426 105.333 386.733 113.799C383.097 122.265 381.279 132.662 381.279 144.992C381.279 157.321 383.097 167.719 386.733 176.185C390.426 184.651 395.597 191.071 402.244 195.446C408.892 199.821 416.676 202.009 425.597 202.009C434.517 202.009 442.301 199.821 448.949 195.446C455.597 191.071 460.739 184.651 464.375 176.185C468.068 167.719 469.915 157.321 469.915 144.992ZM617.933 176.526V101.356H654.24V232.265H619.382V208.486H618.019C615.064 216.157 610.149 222.321 603.274 226.981C596.456 231.64 588.132 233.969 578.303 233.969C569.553 233.969 561.854 231.981 555.206 228.003C548.558 224.026 543.359 218.373 539.609 211.043C535.916 203.714 534.041 194.935 533.984 184.708V101.356H570.291V178.231C570.348 185.958 572.422 192.066 576.513 196.554C580.604 201.043 586.087 203.287 592.962 203.287C597.337 203.287 601.428 202.293 605.234 200.304C609.041 198.259 612.109 195.248 614.439 191.27C616.825 187.293 617.99 182.378 617.933 176.526ZM683.281 232.265V101.356H718.48V124.196H719.844C722.23 116.071 726.236 109.935 731.861 105.787C737.486 101.583 743.963 99.4806 751.293 99.4806C753.111 99.4806 755.071 99.5942 757.173 99.8215C759.276 100.049 761.122 100.361 762.713 100.759V132.975C761.009 132.464 758.651 132.009 755.639 131.611C752.628 131.214 749.872 131.015 747.372 131.015C742.031 131.015 737.259 132.179 733.054 134.509C728.906 136.782 725.611 139.964 723.168 144.054C720.781 148.145 719.588 152.861 719.588 158.202V232.265H683.281ZM890.405 138.685L857.166 140.731C856.598 137.89 855.377 135.333 853.502 133.06C851.627 130.731 849.155 128.884 846.087 127.52C843.075 126.1 839.467 125.39 835.263 125.39C829.638 125.39 824.894 126.583 821.03 128.969C817.166 131.299 815.234 134.424 815.234 138.344C815.234 141.469 816.484 144.111 818.984 146.27C821.484 148.429 825.774 150.162 831.854 151.469L855.547 156.242C868.274 158.856 877.763 163.06 884.013 168.856C890.263 174.651 893.388 182.265 893.388 191.696C893.388 200.276 890.859 207.804 885.803 214.282C880.803 220.759 873.928 225.816 865.178 229.452C856.484 233.032 846.456 234.821 835.092 234.821C817.763 234.821 803.956 231.214 793.672 223.998C783.445 216.725 777.45 206.839 775.689 194.339L811.399 192.464C812.479 197.748 815.092 201.782 819.24 204.566C823.388 207.293 828.7 208.657 835.178 208.657C841.541 208.657 846.655 207.435 850.519 204.992C854.439 202.492 856.428 199.282 856.484 195.361C856.428 192.066 855.036 189.367 852.308 187.265C849.581 185.106 845.377 183.458 839.695 182.321L817.024 177.804C804.24 175.248 794.723 170.816 788.473 164.509C782.28 158.202 779.183 150.162 779.183 140.39C779.183 131.981 781.456 124.736 786.002 118.657C790.604 112.577 797.053 107.89 805.348 104.594C813.7 101.299 823.473 99.651 834.666 99.651C851.2 99.651 864.212 103.145 873.7 110.134C883.246 117.123 888.814 126.64 890.405 138.685ZM952.557 156.583V232.265H916.25V57.7192H951.534V124.452H953.068C956.023 116.725 960.796 110.674 967.386 106.299C973.977 101.867 982.244 99.651 992.188 99.651C1001.28 99.651 1009.2 101.64 1015.97 105.617C1022.78 109.537 1028.07 115.191 1031.82 122.577C1035.63 129.907 1037.5 138.685 1037.44 148.912V232.265H1001.14V155.39C1001.19 147.321 999.148 141.043 995 136.554C990.909 132.066 985.171 129.821 977.784 129.821C972.841 129.821 968.466 130.873 964.659 132.975C960.909 135.077 957.955 138.145 955.796 142.179C953.693 146.157 952.614 150.958 952.557 156.583ZM1103.35 234.736C1094.99 234.736 1087.55 233.287 1081.02 230.39C1074.48 227.435 1069.31 223.089 1065.5 217.35C1061.75 211.554 1059.88 204.339 1059.88 195.702C1059.88 188.429 1061.21 182.321 1063.89 177.378C1066.56 172.435 1070.19 168.458 1074.79 165.446C1079.4 162.435 1084.62 160.162 1090.48 158.628C1096.39 157.094 1102.58 156.015 1109.06 155.39C1116.67 154.594 1122.81 153.856 1127.46 153.174C1132.12 152.435 1135.5 151.356 1137.61 149.935C1139.71 148.515 1140.76 146.412 1140.76 143.628V143.117C1140.76 137.719 1139.06 133.543 1135.65 130.589C1132.29 127.634 1127.52 126.157 1121.33 126.157C1114.79 126.157 1109.6 127.606 1105.73 130.503C1101.87 133.344 1099.31 136.924 1098.06 141.242L1064.48 138.515C1066.19 130.56 1069.54 123.685 1074.54 117.89C1079.54 112.037 1085.99 107.549 1093.89 104.424C1101.84 101.242 1111.04 99.651 1121.5 99.651C1128.77 99.651 1135.73 100.503 1142.38 102.208C1149.08 103.912 1155.02 106.554 1160.19 110.134C1165.42 113.714 1169.54 118.316 1172.55 123.941C1175.56 129.509 1177.07 136.185 1177.07 143.969V232.265H1142.64V214.111H1141.61C1139.51 218.202 1136.7 221.81 1133.17 224.935C1129.65 228.003 1125.42 230.418 1120.48 232.179C1115.53 233.884 1109.82 234.736 1103.35 234.736ZM1113.74 209.679C1119.08 209.679 1123.8 208.628 1127.89 206.526C1131.98 204.367 1135.19 201.469 1137.52 197.833C1139.85 194.196 1141.02 190.077 1141.02 185.475V171.583C1139.88 172.321 1138.32 173.003 1136.33 173.628C1134.4 174.196 1132.21 174.736 1129.77 175.248C1127.32 175.702 1124.88 176.128 1122.44 176.526C1119.99 176.867 1117.78 177.179 1115.79 177.464C1111.53 178.089 1107.81 179.083 1104.62 180.446C1101.44 181.81 1098.97 183.657 1097.21 185.986C1095.45 188.259 1094.57 191.1 1094.57 194.509C1094.57 199.452 1096.36 203.231 1099.94 205.844C1103.57 208.401 1108.17 209.679 1113.74 209.679ZM1205.23 232.265V101.356H1240.43V124.196H1241.8C1244.18 116.071 1248.19 109.935 1253.81 105.787C1259.44 101.583 1265.92 99.4806 1273.25 99.4806C1275.06 99.4806 1277.02 99.5942 1279.13 99.8215C1281.23 100.049 1283.08 100.361 1284.67 100.759V132.975C1282.96 132.464 1280.6 132.009 1277.59 131.611C1274.58 131.214 1271.83 131.015 1269.33 131.015C1263.98 131.015 1259.21 132.179 1255.01 134.509C1250.86 136.782 1247.56 139.964 1245.12 144.054C1242.73 148.145 1241.54 152.861 1241.54 158.202V232.265H1205.23ZM1357 234.821C1343.54 234.821 1331.95 232.094 1322.23 226.64C1312.57 221.128 1305.13 213.344 1299.9 203.287C1294.67 193.174 1292.06 181.214 1292.06 167.407C1292.06 153.941 1294.67 142.123 1299.9 131.952C1305.13 121.782 1312.49 113.856 1321.97 108.174C1331.52 102.492 1342.71 99.651 1355.55 99.651C1364.19 99.651 1372.23 101.043 1379.67 103.827C1387.17 106.554 1393.71 110.674 1399.28 116.185C1404.9 121.696 1409.28 128.628 1412.4 136.981C1415.53 145.276 1417.09 154.992 1417.09 166.128V176.1H1306.55V153.6H1382.91C1382.91 148.373 1381.78 143.742 1379.5 139.708C1377.23 135.674 1374.08 132.52 1370.04 130.248C1366.07 127.918 1361.43 126.753 1356.15 126.753C1350.64 126.753 1345.75 128.032 1341.49 130.589C1337.29 133.089 1333.99 136.469 1331.61 140.731C1329.22 144.935 1328 149.623 1327.94 154.793V176.185C1327.94 182.662 1329.13 188.259 1331.52 192.975C1333.96 197.691 1337.4 201.327 1341.83 203.884C1346.26 206.441 1351.52 207.719 1357.6 207.719C1361.63 207.719 1365.33 207.151 1368.68 206.015C1372.03 204.878 1374.9 203.174 1377.29 200.901C1379.67 198.628 1381.49 195.844 1382.74 192.549L1416.32 194.765C1414.62 202.833 1411.12 209.878 1405.84 215.901C1400.61 221.867 1393.85 226.526 1385.55 229.878C1377.32 233.174 1367.8 234.821 1357 234.821Z" fill="white"/>
</svg>
