<svg width="231" height="236" viewBox="0 0 231 236" fill="none" xmlns="http://www.w3.org/2000/svg">
<path d="M140.882 192.3C129.059 198.532 115.882 201.752 102.517 201.674C89.1531 201.597 76.014 198.225 64.264 191.857C52.5141 185.489 42.5159 176.322 35.1553 165.167C27.7946 154.012 23.2985 141.214 22.0654 127.906C20.8323 114.599 22.9001 101.192 28.0858 88.8747C33.2714 76.5571 41.4148 65.7086 51.7946 57.2899C62.1744 48.8713 74.4701 43.1425 87.5928 40.611C100.715 38.0794 114.26 38.8232 127.026 42.7766L102.987 120.408L140.882 192.3Z" fill="#007BFF"/>
<path d="M139.316 37.5619C153.481 41.9481 166.175 50.1259 176.025 61.2098C185.874 72.2937 192.504 85.8612 195.195 100.443L115.277 115.193L139.316 37.5619Z" fill="white"/>
<path d="M195.126 109.23C198.379 126.411 196.004 144.184 188.352 159.907C180.701 175.631 168.182 188.467 152.655 196.51L115.277 124.348L195.126 109.23Z" fill="#D9D9D9"/>
</svg>
