<svg width="1353" height="401" viewBox="0 0 1353 401" fill="none" xmlns="http://www.w3.org/2000/svg">
<rect x="10.3337" y="10.4673" width="1332.3" height="380" fill="black" stroke="white" stroke-width="20"/>
<circle cx="216.805" cy="200.467" r="127.114" fill="white"/>
<rect x="274.438" y="180.658" width="51.0317" height="162.56" rx="25.5159" transform="rotate(60 274.438 180.658)" fill="black"/>
<rect x="274.438" y="99.3779" width="51.0317" height="162.56" rx="25.5159" transform="rotate(60 274.438 99.3779)" fill="black"/>
<path d="M454.713 249.614V174.444H491.02V305.353H456.162V281.574H454.798C451.844 289.245 446.929 295.41 440.054 300.069C433.236 304.728 424.912 307.057 415.082 307.057C406.332 307.057 398.634 305.069 391.986 301.091C385.338 297.114 380.139 291.461 376.389 284.131C372.696 276.802 370.821 268.023 370.764 257.796V174.444H407.071V251.319C407.128 259.046 409.202 265.154 413.293 269.643C417.384 274.131 422.867 276.376 429.742 276.376C434.117 276.376 438.207 275.381 442.014 273.393C445.821 271.347 448.889 268.336 451.219 264.358C453.605 260.381 454.77 255.466 454.713 249.614ZM520.061 305.353V174.444H555.26V197.285H556.624C559.01 189.16 563.016 183.023 568.641 178.876C574.266 174.671 580.743 172.569 588.073 172.569C589.891 172.569 591.851 172.682 593.953 172.91C596.055 173.137 597.902 173.449 599.493 173.847V206.063C597.788 205.552 595.43 205.097 592.419 204.699C589.408 204.302 586.652 204.103 584.152 204.103C578.811 204.103 574.038 205.268 569.834 207.597C565.686 209.87 562.391 213.052 559.948 217.143C557.561 221.233 556.368 225.949 556.368 231.29V305.353H520.061ZM727.185 211.773L693.946 213.819C693.378 210.978 692.156 208.421 690.281 206.148C688.406 203.819 685.935 201.972 682.867 200.608C679.855 199.188 676.247 198.478 672.043 198.478C666.418 198.478 661.673 199.671 657.81 202.057C653.946 204.387 652.014 207.512 652.014 211.432C652.014 214.557 653.264 217.199 655.764 219.358C658.264 221.518 662.554 223.251 668.634 224.557L692.327 229.33C705.054 231.944 714.543 236.148 720.793 241.944C727.043 247.739 730.168 255.353 730.168 264.785C730.168 273.364 727.639 280.893 722.582 287.37C717.582 293.847 710.707 298.904 701.957 302.54C693.264 306.12 683.236 307.91 671.872 307.91C654.543 307.91 640.736 304.302 630.452 297.086C620.224 289.813 614.23 279.927 612.469 267.427L648.179 265.552C649.259 270.836 651.872 274.87 656.02 277.654C660.168 280.381 665.48 281.745 671.957 281.745C678.321 281.745 683.435 280.523 687.298 278.08C691.219 275.58 693.207 272.37 693.264 268.449C693.207 265.154 691.815 262.455 689.088 260.353C686.361 258.194 682.156 256.546 676.474 255.41L653.804 250.893C641.02 248.336 631.503 243.904 625.253 237.597C619.06 231.29 615.963 223.251 615.963 213.478C615.963 205.069 618.236 197.824 622.781 191.745C627.384 185.665 633.832 180.978 642.128 177.682C650.48 174.387 660.253 172.739 671.446 172.739C687.98 172.739 700.992 176.233 710.48 183.222C720.026 190.211 725.594 199.728 727.185 211.773ZM789.337 229.671V305.353H753.03V130.807H788.314V197.54H789.848C792.803 189.813 797.575 183.762 804.166 179.387C810.757 174.955 819.024 172.739 828.967 172.739C838.058 172.739 845.984 174.728 852.746 178.705C859.564 182.626 864.848 188.279 868.598 195.665C872.405 202.995 874.28 211.773 874.223 222.001V305.353H837.916V228.478C837.973 220.41 835.928 214.131 831.78 209.643C827.689 205.154 821.95 202.91 814.564 202.91C809.621 202.91 805.246 203.961 801.439 206.063C797.689 208.165 794.734 211.233 792.575 215.268C790.473 219.245 789.394 224.046 789.337 229.671ZM940.125 307.824C931.773 307.824 924.33 306.376 917.796 303.478C911.261 300.523 906.091 296.177 902.284 290.438C898.534 284.643 896.659 277.427 896.659 268.79C896.659 261.518 897.994 255.41 900.665 250.466C903.335 245.523 906.972 241.546 911.574 238.535C916.176 235.523 921.403 233.251 927.256 231.716C933.165 230.182 939.358 229.103 945.835 228.478C953.449 227.682 959.585 226.944 964.244 226.262C968.903 225.523 972.284 224.444 974.386 223.023C976.489 221.603 977.54 219.501 977.54 216.716V216.205C977.54 210.807 975.835 206.631 972.426 203.677C969.074 200.722 964.301 199.245 958.108 199.245C951.574 199.245 946.375 200.694 942.511 203.591C938.648 206.432 936.091 210.012 934.841 214.33L901.261 211.603C902.966 203.648 906.318 196.773 911.318 190.978C916.318 185.126 922.767 180.637 930.665 177.512C938.619 174.33 947.824 172.739 958.278 172.739C965.551 172.739 972.511 173.591 979.159 175.296C985.864 177.001 991.801 179.643 996.972 183.222C1002.2 186.802 1006.32 191.404 1009.33 197.029C1012.34 202.597 1013.85 209.273 1013.85 217.057V305.353H979.415V287.199H978.392C976.29 291.29 973.477 294.898 969.955 298.023C966.432 301.091 962.199 303.506 957.256 305.268C952.313 306.972 946.602 307.824 940.125 307.824ZM950.523 282.768C955.864 282.768 960.58 281.716 964.671 279.614C968.761 277.455 971.972 274.557 974.301 270.921C976.631 267.285 977.796 263.165 977.796 258.563V244.671C976.659 245.41 975.097 246.091 973.108 246.716C971.176 247.285 968.989 247.824 966.546 248.336C964.102 248.79 961.659 249.216 959.216 249.614C956.773 249.955 954.557 250.268 952.568 250.552C948.307 251.177 944.585 252.171 941.403 253.535C938.222 254.898 935.75 256.745 933.989 259.074C932.227 261.347 931.347 264.188 931.347 267.597C931.347 272.54 933.136 276.319 936.716 278.932C940.352 281.489 944.955 282.768 950.523 282.768ZM1042.01 305.353V174.444H1077.21V197.285H1078.58C1080.96 189.16 1084.97 183.023 1090.59 178.876C1096.22 174.671 1102.7 172.569 1110.03 172.569C1111.84 172.569 1113.8 172.682 1115.91 172.91C1118.01 173.137 1119.86 173.449 1121.45 173.847V206.063C1119.74 205.552 1117.38 205.097 1114.37 204.699C1111.36 204.302 1108.61 204.103 1106.11 204.103C1100.76 204.103 1095.99 205.268 1091.79 207.597C1087.64 209.87 1084.34 213.052 1081.9 217.143C1079.51 221.233 1078.32 225.949 1078.32 231.29V305.353H1042.01ZM1193.78 307.91C1180.32 307.91 1168.73 305.182 1159.01 299.728C1149.35 294.216 1141.91 286.432 1136.68 276.376C1131.45 266.262 1128.84 254.302 1128.84 240.495C1128.84 227.029 1131.45 215.211 1136.68 205.04C1141.91 194.87 1149.27 186.944 1158.75 181.262C1168.3 175.58 1179.49 172.739 1192.33 172.739C1200.97 172.739 1209.01 174.131 1216.45 176.915C1223.95 179.643 1230.49 183.762 1236.06 189.273C1241.68 194.785 1246.06 201.716 1249.18 210.069C1252.31 218.364 1253.87 228.08 1253.87 239.216V249.188H1143.33V226.688H1219.69C1219.69 221.461 1218.56 216.83 1216.28 212.796C1214.01 208.762 1210.86 205.608 1206.82 203.336C1202.85 201.006 1198.21 199.841 1192.93 199.841C1187.42 199.841 1182.53 201.12 1178.27 203.677C1174.07 206.177 1170.77 209.557 1168.39 213.819C1166 218.023 1164.78 222.711 1164.72 227.881V249.273C1164.72 255.751 1165.91 261.347 1168.3 266.063C1170.74 270.779 1174.18 274.415 1178.61 276.972C1183.04 279.529 1188.3 280.807 1194.38 280.807C1198.41 280.807 1202.11 280.239 1205.46 279.103C1208.81 277.966 1211.68 276.262 1214.07 273.989C1216.45 271.716 1218.27 268.932 1219.52 265.637L1253.1 267.853C1251.4 275.921 1247.9 282.966 1242.62 288.989C1237.39 294.955 1230.63 299.614 1222.33 302.966C1214.1 306.262 1204.58 307.91 1193.78 307.91Z" fill="white"/>
</svg>
