<svg width="1665" height="401" viewBox="0 0 1665 401" fill="none" xmlns="http://www.w3.org/2000/svg">
<rect x="10.7646" y="10.0088" width="1643.96" height="380" fill="black" stroke="white" stroke-width="20"/>
<circle cx="217.236" cy="200.009" r="127.114" fill="white"/>
<rect x="274.868" y="180.2" width="51.0317" height="162.56" rx="25.5159" transform="rotate(60 274.868 180.2)" fill="black"/>
<rect x="274.868" y="98.9199" width="51.0317" height="162.56" rx="25.5159" transform="rotate(60 274.868 98.9199)" fill="black"/>
<path d="M596.529 211.808C596.529 230.842 592.921 247.035 585.705 260.387C578.546 273.74 568.773 283.939 556.387 290.984C544.058 297.973 530.194 301.467 514.796 301.467C499.285 301.467 485.364 297.944 473.035 290.899C460.705 283.853 450.961 273.654 443.802 260.302C436.643 246.95 433.063 230.785 433.063 211.808C433.063 192.774 436.643 176.581 443.802 163.228C450.961 149.876 460.705 139.706 473.035 132.717C485.364 125.671 499.285 122.149 514.796 122.149C530.194 122.149 544.058 125.671 556.387 132.717C568.773 139.706 578.546 149.876 585.705 163.228C592.921 176.581 596.529 192.774 596.529 211.808ZM559.114 211.808C559.114 199.478 557.268 189.081 553.575 180.615C549.938 172.149 544.796 165.728 538.148 161.353C531.501 156.978 523.717 154.791 514.796 154.791C505.876 154.791 498.092 156.978 491.444 161.353C484.796 165.728 479.626 172.149 475.933 180.615C472.296 189.081 470.478 199.478 470.478 211.808C470.478 224.137 472.296 234.535 475.933 243.001C479.626 251.467 484.796 257.887 491.444 262.262C498.092 266.637 505.876 268.825 514.796 268.825C523.717 268.825 531.501 266.637 538.148 262.262C544.796 257.887 549.938 251.467 553.575 243.001C557.268 234.535 559.114 224.137 559.114 211.808ZM707.133 243.342V168.171H743.44V299.081H708.582V275.302H707.218C704.263 282.973 699.349 289.137 692.474 293.796C685.656 298.456 677.332 300.785 667.502 300.785C658.752 300.785 651.053 298.796 644.406 294.819C637.758 290.842 632.559 285.189 628.809 277.859C625.116 270.529 623.241 261.751 623.184 251.524V168.171H659.491V245.046C659.548 252.774 661.621 258.882 665.712 263.37C669.803 267.859 675.286 270.103 682.161 270.103C686.536 270.103 690.627 269.109 694.434 267.12C698.241 265.075 701.309 262.064 703.638 258.086C706.025 254.109 707.19 249.194 707.133 243.342ZM772.481 299.081V168.171H807.68V191.012H809.043C811.43 182.887 815.435 176.751 821.06 172.603C826.685 168.399 833.163 166.296 840.492 166.296C842.31 166.296 844.271 166.41 846.373 166.637C848.475 166.865 850.322 167.177 851.913 167.575V199.791C850.208 199.279 847.85 198.825 844.839 198.427C841.827 198.029 839.072 197.831 836.572 197.831C831.231 197.831 826.458 198.995 822.254 201.325C818.106 203.598 814.81 206.779 812.367 210.87C809.981 214.961 808.788 219.677 808.788 225.018V299.081H772.481ZM979.604 205.501L946.366 207.546C945.798 204.706 944.576 202.149 942.701 199.876C940.826 197.546 938.354 195.7 935.286 194.336C932.275 192.916 928.667 192.206 924.462 192.206C918.837 192.206 914.093 193.399 910.229 195.785C906.366 198.115 904.434 201.24 904.434 205.16C904.434 208.285 905.684 210.927 908.184 213.086C910.684 215.245 914.974 216.978 921.053 218.285L944.746 223.058C957.474 225.671 966.962 229.876 973.212 235.671C979.462 241.467 982.587 249.081 982.587 258.512C982.587 267.092 980.059 274.62 975.002 281.098C970.002 287.575 963.127 292.632 954.377 296.268C945.684 299.848 935.656 301.637 924.292 301.637C906.962 301.637 893.156 298.029 882.871 290.814C872.644 283.541 866.65 273.654 864.888 261.154L900.599 259.279C901.678 264.564 904.292 268.598 908.44 271.382C912.587 274.109 917.9 275.473 924.377 275.473C930.741 275.473 935.854 274.251 939.718 271.808C943.638 269.308 945.627 266.098 945.684 262.177C945.627 258.882 944.235 256.183 941.508 254.081C938.781 251.921 934.576 250.274 928.894 249.137L906.224 244.62C893.44 242.064 883.923 237.632 877.673 231.325C871.479 225.018 868.383 216.978 868.383 207.206C868.383 198.796 870.656 191.552 875.201 185.473C879.803 179.393 886.252 174.706 894.548 171.41C902.9 168.115 912.673 166.467 923.866 166.467C940.4 166.467 953.411 169.961 962.9 176.95C972.445 183.939 978.013 193.456 979.604 205.501ZM1041.76 223.399V299.081H1005.45V124.535H1040.73V191.268H1042.27C1045.22 183.541 1050 177.49 1056.59 173.115C1063.18 168.683 1071.44 166.467 1081.39 166.467C1090.48 166.467 1098.4 168.456 1105.17 172.433C1111.98 176.353 1117.27 182.007 1121.02 189.393C1124.82 196.723 1126.7 205.501 1126.64 215.728V299.081H1090.34V222.206C1090.39 214.137 1088.35 207.859 1084.2 203.37C1080.11 198.882 1074.37 196.637 1066.98 196.637C1062.04 196.637 1057.67 197.689 1053.86 199.791C1050.11 201.893 1047.15 204.961 1045 208.995C1042.89 212.973 1041.81 217.774 1041.76 223.399ZM1192.54 301.552C1184.19 301.552 1176.75 300.103 1170.22 297.206C1163.68 294.251 1158.51 289.904 1154.7 284.166C1150.95 278.37 1149.08 271.154 1149.08 262.518C1149.08 255.245 1150.41 249.137 1153.08 244.194C1155.75 239.251 1159.39 235.274 1163.99 232.262C1168.6 229.251 1173.82 226.978 1179.68 225.444C1185.58 223.91 1191.78 222.831 1198.25 222.206C1205.87 221.41 1212 220.671 1216.66 219.99C1221.32 219.251 1224.7 218.171 1226.81 216.751C1228.91 215.331 1229.96 213.228 1229.96 210.444V209.933C1229.96 204.535 1228.25 200.359 1224.85 197.404C1221.49 194.45 1216.72 192.973 1210.53 192.973C1203.99 192.973 1198.79 194.421 1194.93 197.319C1191.07 200.16 1188.51 203.74 1187.26 208.058L1153.68 205.331C1155.39 197.376 1158.74 190.501 1163.74 184.706C1168.74 178.853 1175.19 174.365 1183.08 171.24C1191.04 168.058 1200.24 166.467 1210.7 166.467C1217.97 166.467 1224.93 167.319 1231.58 169.024C1238.28 170.728 1244.22 173.37 1249.39 176.95C1254.62 180.529 1258.74 185.132 1261.75 190.757C1264.76 196.325 1266.27 203.001 1266.27 210.785V299.081H1231.83V280.927H1230.81C1228.71 285.018 1225.9 288.626 1222.37 291.751C1218.85 294.819 1214.62 297.234 1209.68 298.995C1204.73 300.7 1199.02 301.552 1192.54 301.552ZM1202.94 276.495C1208.28 276.495 1213 275.444 1217.09 273.342C1221.18 271.183 1224.39 268.285 1226.72 264.649C1229.05 261.012 1230.22 256.893 1230.22 252.291V238.399C1229.08 239.137 1227.52 239.819 1225.53 240.444C1223.6 241.012 1221.41 241.552 1218.97 242.064C1216.52 242.518 1214.08 242.944 1211.64 243.342C1209.19 243.683 1206.98 243.995 1204.99 244.279C1200.73 244.904 1197 245.899 1193.82 247.262C1190.64 248.626 1188.17 250.473 1186.41 252.802C1184.65 255.075 1183.77 257.916 1183.77 261.325C1183.77 266.268 1185.56 270.046 1189.14 272.66C1192.77 275.217 1197.37 276.495 1202.94 276.495ZM1294.43 299.081V168.171H1329.63V191.012H1331C1333.38 182.887 1337.39 176.751 1343.01 172.603C1348.64 168.399 1355.12 166.296 1362.45 166.296C1364.26 166.296 1366.22 166.41 1368.33 166.637C1370.43 166.865 1372.27 167.177 1373.87 167.575V199.791C1372.16 199.279 1369.8 198.825 1366.79 198.427C1363.78 198.029 1361.02 197.831 1358.52 197.831C1353.18 197.831 1348.41 198.995 1344.21 201.325C1340.06 203.598 1336.76 206.779 1334.32 210.87C1331.93 214.961 1330.74 219.677 1330.74 225.018V299.081H1294.43ZM1446.2 301.637C1432.74 301.637 1421.15 298.91 1411.43 293.456C1401.77 287.944 1394.33 280.16 1389.1 270.103C1383.87 259.99 1381.26 248.029 1381.26 234.223C1381.26 220.757 1383.87 208.939 1389.1 198.768C1394.33 188.598 1401.69 180.671 1411.17 174.99C1420.72 169.308 1431.91 166.467 1444.75 166.467C1453.39 166.467 1461.43 167.859 1468.87 170.643C1476.37 173.37 1482.91 177.49 1488.48 183.001C1494.1 188.512 1498.48 195.444 1501.6 203.796C1504.73 212.092 1506.29 221.808 1506.29 232.944V242.916H1395.75V220.416H1472.11C1472.11 215.189 1470.98 210.558 1468.7 206.524C1466.43 202.49 1463.28 199.336 1459.24 197.064C1455.26 194.734 1450.63 193.569 1445.35 193.569C1439.84 193.569 1434.95 194.848 1430.69 197.404C1426.49 199.904 1423.19 203.285 1420.8 207.546C1418.42 211.751 1417.2 216.439 1417.14 221.609V243.001C1417.14 249.478 1418.33 255.075 1420.72 259.791C1423.16 264.507 1426.6 268.143 1431.03 270.7C1435.46 273.257 1440.72 274.535 1446.8 274.535C1450.83 274.535 1454.53 273.967 1457.88 272.831C1461.23 271.694 1464.1 269.99 1466.49 267.717C1468.87 265.444 1470.69 262.66 1471.94 259.365L1505.52 261.581C1503.82 269.649 1500.32 276.694 1495.04 282.717C1489.81 288.683 1483.05 293.342 1474.75 296.694C1466.51 299.99 1457 301.637 1446.2 301.637Z" fill="white"/>
</svg>
