<svg width="141" height="168" viewBox="0 0 141 168" fill="none" xmlns="http://www.w3.org/2000/svg">
<path d="M102.025 104L140.025 158L125.025 168L87.025 114C61.025 127 29.025 119 12.025 95.0001C-6.975 68.0001 -0.975004 31.0001 26.025 12.0001C53.025 -6.99991 91.025 -0.999907 109.025 26.0001C127.025 51.0001 123.025 84.0001 102.025 104ZM37.025 27.0001C18.025 40.0001 14.025 66.0001 27.025 84.0001C40.025 103 66.025 107 84.025 94.0001C103.025 81.0001 107.025 56.0001 94.025 37.0001C81.025 18.0001 56.025 14.0001 37.025 27.0001Z" fill="white"/>
</svg>
