<svg width="96" height="70" viewBox="0 0 96 70" fill="none" xmlns="http://www.w3.org/2000/svg">
<path d="M4.5498 50.8237C2.3498 50.8237 0.549805 52.6237 0.549805 54.8237C0.549805 57.0237 2.2498 58.8237 4.4498 58.8237C16.9498 58.8237 28.9498 53.9237 37.7498 45.2237L32.4498 39.3237C25.1498 46.6237 15.0498 50.8237 4.5498 50.8237Z" fill="white"/>
<path d="M45.6494 24.7236L50.9494 30.6236C58.2494 23.3236 68.3494 19.1236 78.7494 19.1236H82.0494L77.9494 23.2236C76.3494 24.8236 76.3494 27.3236 77.9494 28.8236C79.4494 30.4236 82.0494 30.4236 83.5494 28.8236L94.3494 17.9236C95.0494 17.2236 95.5494 16.1236 95.5494 15.1236C95.5494 14.0236 95.1494 13.0236 94.3494 12.3236L83.4494 1.42363C82.6494 0.623633 81.6494 0.223633 80.6494 0.223633C79.6494 0.223633 78.6494 0.623633 77.8494 1.42363C76.2494 3.02363 76.2494 5.52363 77.8494 7.02363L81.9494 11.1236H78.6494C66.2494 11.2236 54.3494 16.1236 45.6494 24.7236Z" fill="white"/>
<path d="M94.3498 51.9234L83.5498 41.0234C82.7498 40.2234 81.7498 39.8234 80.7498 39.8234C79.7498 39.8234 78.7498 40.2234 77.9498 41.0234C76.4498 42.5234 76.4498 45.1234 77.9498 46.6234L82.0498 50.7234H78.7498C67.5498 50.7234 56.8498 45.9234 49.4498 37.5234L39.8498 26.9234C30.8498 16.8234 18.0498 11.0234 4.5498 11.0234C2.3498 11.0234 0.549805 12.8234 0.549805 15.0234C0.549805 17.2234 2.2498 19.0234 4.4498 19.0234C15.7498 19.0234 26.4498 23.8234 33.8498 32.2234L43.3498 42.9234C52.3498 53.0234 65.1498 58.7234 78.6498 58.7234H82.0498L77.9498 62.8234C76.4498 64.3234 76.4498 66.9234 77.9498 68.4234C79.4498 69.9234 82.0498 69.9234 83.5498 68.4234L94.4498 57.5234C95.9498 55.9234 95.9498 53.4234 94.3498 51.9234Z" fill="white"/>
</svg>
