<svg width="801" height="601" viewBox="0 0 801 601" fill="none" xmlns="http://www.w3.org/2000/svg">
<rect x="0.547363" y="0.0126953" width="800" height="600" fill="black"/>
<circle cx="400.547" cy="225.157" r="145.062" fill="white"/>
<rect x="466.317" y="202.551" width="58.237" height="185.512" rx="29.1185" transform="rotate(60 466.317 202.551)" fill="black"/>
<rect x="466.317" y="109.795" width="58.237" height="185.512" rx="29.1185" transform="rotate(60 466.317 109.795)" fill="black"/>
<path d="M237.858 470.028C237.858 478.355 236.28 485.44 233.123 491.281C229.991 497.123 225.715 501.585 220.296 504.667C214.902 507.725 208.837 509.254 202.1 509.254C195.314 509.254 189.224 507.713 183.83 504.63C178.436 501.548 174.172 497.086 171.04 491.244C167.908 485.403 166.342 478.33 166.342 470.028C166.342 461.7 167.908 454.616 171.04 448.774C174.172 442.933 178.436 438.483 183.83 435.426C189.224 432.343 195.314 430.802 202.1 430.802C208.837 430.802 214.902 432.343 220.296 435.426C225.715 438.483 229.991 442.933 233.123 448.774C236.28 454.616 237.858 461.7 237.858 470.028ZM221.489 470.028C221.489 464.634 220.682 460.085 219.066 456.381C217.475 452.677 215.225 449.868 212.317 447.954C209.409 446.04 206.003 445.083 202.1 445.083C198.198 445.083 194.792 446.04 191.884 447.954C188.975 449.868 186.713 452.677 185.097 456.381C183.507 460.085 182.711 464.634 182.711 470.028C182.711 475.422 183.507 479.971 185.097 483.675C186.713 487.379 188.975 490.188 191.884 492.102C194.792 494.016 198.198 494.973 202.1 494.973C206.003 494.973 209.409 494.016 212.317 492.102C215.225 490.188 217.475 487.379 219.066 483.675C220.682 479.971 221.489 475.422 221.489 470.028ZM286.248 483.824V450.937H302.132V508.21H286.881V497.807H286.285C284.992 501.162 282.842 503.86 279.834 505.898C276.851 507.936 273.21 508.955 268.909 508.955C265.081 508.955 261.713 508.085 258.804 506.345C255.896 504.605 253.621 502.132 251.981 498.925C250.365 495.719 249.545 491.878 249.52 487.404V450.937H265.404V484.57C265.429 487.95 266.336 490.623 268.126 492.586C269.916 494.55 272.315 495.532 275.322 495.532C277.237 495.532 279.026 495.097 280.692 494.227C282.357 493.332 283.7 492.015 284.719 490.275C285.763 488.535 286.272 486.384 286.248 483.824ZM314.837 508.21V450.937H330.237V460.93H330.833C331.877 457.375 333.63 454.691 336.091 452.876C338.552 451.036 341.386 450.117 344.592 450.117C345.388 450.117 346.245 450.166 347.165 450.266C348.085 450.365 348.893 450.502 349.589 450.676V464.77C348.843 464.547 347.811 464.348 346.494 464.174C345.176 464 343.971 463.913 342.877 463.913C340.54 463.913 338.452 464.422 336.613 465.442C334.798 466.436 333.356 467.828 332.288 469.618C331.244 471.408 330.722 473.471 330.722 475.807V508.21H314.837ZM405.454 467.269L390.912 468.164C390.663 466.921 390.129 465.802 389.309 464.808C388.488 463.789 387.407 462.981 386.065 462.384C384.747 461.763 383.169 461.452 381.329 461.452C378.868 461.452 376.793 461.974 375.102 463.018C373.412 464.037 372.567 465.404 372.567 467.12C372.567 468.487 373.114 469.643 374.207 470.587C375.301 471.532 377.178 472.29 379.838 472.862L390.204 474.95C395.772 476.093 399.923 477.933 402.657 480.468C405.392 483.004 406.759 486.335 406.759 490.461C406.759 494.215 405.653 497.508 403.44 500.342C401.253 503.176 398.245 505.388 394.417 506.979C390.614 508.545 386.226 509.328 381.255 509.328C373.673 509.328 367.633 507.75 363.133 504.593C358.659 501.411 356.036 497.086 355.266 491.617L370.889 490.797C371.361 493.109 372.505 494.873 374.319 496.091C376.134 497.285 378.458 497.881 381.292 497.881C384.076 497.881 386.313 497.347 388.004 496.278C389.719 495.184 390.589 493.78 390.614 492.064C390.589 490.623 389.98 489.442 388.787 488.522C387.593 487.578 385.754 486.857 383.268 486.36L373.35 484.383C367.757 483.265 363.593 481.326 360.859 478.567C358.149 475.807 356.794 472.29 356.794 468.014C356.794 464.335 357.789 461.166 359.777 458.506C361.791 455.846 364.612 453.796 368.242 452.354C371.896 450.912 376.171 450.191 381.068 450.191C388.302 450.191 393.994 451.72 398.146 454.778C402.322 457.835 404.758 461.999 405.454 467.269ZM432.645 475.099V508.21H416.761V431.846H432.198V461.042H432.869C434.162 457.661 436.25 455.014 439.133 453.1C442.017 451.161 445.634 450.191 449.984 450.191C453.961 450.191 457.429 451.061 460.387 452.801C463.37 454.517 465.682 456.99 467.322 460.221C468.988 463.428 469.808 467.269 469.783 471.743V508.21H453.899V474.577C453.924 471.047 453.029 468.3 451.214 466.336C449.424 464.373 446.914 463.391 443.682 463.391C441.52 463.391 439.606 463.851 437.94 464.77C436.299 465.69 435.007 467.033 434.062 468.797C433.143 470.537 432.67 472.638 432.645 475.099ZM498.615 509.291C494.961 509.291 491.705 508.657 488.846 507.389C485.987 506.097 483.725 504.195 482.06 501.685C480.419 499.149 479.599 495.992 479.599 492.214C479.599 489.032 480.183 486.36 481.351 484.197C482.52 482.034 484.111 480.294 486.124 478.977C488.138 477.659 490.425 476.665 492.985 475.994C495.57 475.323 498.28 474.85 501.114 474.577C504.444 474.229 507.129 473.906 509.167 473.607C511.206 473.284 512.685 472.812 513.605 472.191C514.524 471.569 514.984 470.649 514.984 469.431V469.208C514.984 466.846 514.239 465.019 512.747 463.726C511.28 462.434 509.192 461.787 506.483 461.787C503.624 461.787 501.35 462.421 499.659 463.689C497.969 464.932 496.85 466.498 496.303 468.387L481.612 467.194C482.358 463.714 483.825 460.706 486.012 458.171C488.2 455.61 491.021 453.647 494.476 452.279C497.957 450.887 501.984 450.191 506.557 450.191C509.739 450.191 512.784 450.564 515.693 451.31C518.626 452.056 521.224 453.211 523.486 454.778C525.773 456.344 527.575 458.357 528.892 460.818C530.21 463.254 530.868 466.175 530.868 469.58V508.21H515.805V500.268H515.357C514.437 502.057 513.207 503.636 511.666 505.003C510.125 506.345 508.273 507.402 506.11 508.172C503.947 508.918 501.449 509.291 498.615 509.291ZM503.164 498.329C505.501 498.329 507.564 497.869 509.354 496.949C511.144 496.004 512.548 494.737 513.567 493.146C514.587 491.555 515.096 489.753 515.096 487.739V481.661C514.599 481.985 513.915 482.283 513.045 482.556C512.2 482.805 511.243 483.041 510.174 483.265C509.105 483.464 508.036 483.65 506.968 483.824C505.899 483.973 504.929 484.11 504.059 484.234C502.195 484.508 500.567 484.943 499.175 485.539C497.783 486.136 496.701 486.944 495.931 487.963C495.16 488.957 494.775 490.2 494.775 491.692C494.775 493.854 495.558 495.507 497.124 496.651C498.715 497.769 500.728 498.329 503.164 498.329ZM543.192 508.21V450.937H558.591V460.93H559.188C560.232 457.375 561.984 454.691 564.445 452.876C566.906 451.036 569.74 450.117 572.947 450.117C573.742 450.117 574.6 450.166 575.52 450.266C576.439 450.365 577.247 450.502 577.943 450.676V464.77C577.197 464.547 576.166 464.348 574.848 464.174C573.531 464 572.325 463.913 571.232 463.913C568.895 463.913 566.807 464.422 564.967 465.442C563.153 466.436 561.711 467.828 560.642 469.618C559.598 471.408 559.076 473.471 559.076 475.807V508.21H543.192ZM609.591 509.328C603.699 509.328 598.628 508.135 594.377 505.749C590.152 503.338 586.895 499.932 584.608 495.532C582.321 491.107 581.178 485.875 581.178 479.834C581.178 473.943 582.321 468.773 584.608 464.323C586.895 459.873 590.114 456.406 594.266 453.92C598.442 451.434 603.339 450.191 608.957 450.191C612.735 450.191 616.252 450.8 619.509 452.018C622.79 453.211 625.649 455.014 628.085 457.425C630.546 459.836 632.46 462.869 633.827 466.523C635.194 470.152 635.878 474.403 635.878 479.275V483.638H587.517V473.794H620.926C620.926 471.507 620.429 469.481 619.434 467.716C618.44 465.951 617.06 464.572 615.295 463.577C613.555 462.558 611.529 462.048 609.218 462.048C606.806 462.048 604.669 462.608 602.804 463.726C600.965 464.82 599.523 466.299 598.479 468.164C597.435 470.003 596.901 472.054 596.876 474.316V483.675C596.876 486.509 597.398 488.957 598.442 491.02C599.511 493.084 601.015 494.675 602.953 495.793C604.892 496.912 607.192 497.471 609.852 497.471C611.616 497.471 613.232 497.223 614.699 496.725C616.165 496.228 617.421 495.482 618.465 494.488C619.509 493.494 620.304 492.276 620.851 490.834L635.542 491.803C634.796 495.333 633.268 498.416 630.956 501.051C628.669 503.661 625.711 505.699 622.082 507.166C618.477 508.607 614.314 509.328 609.591 509.328Z" fill="white"/>
</svg>
